<svg width="57" height="64" viewBox="0 0 57 64" fill="none" xmlns="http://www.w3.org/2000/svg">
<path fill-rule="evenodd" clip-rule="evenodd" d="M38.4109 49.5085L38.3997 51.4773C38.3947 52.3986 37.6422 53.1473 36.7234 53.1448L34.8958 53.1361C34.6246 54.0286 34.2408 54.8724 33.7533 55.6461L35.0996 57.0062C35.7484 57.6612 35.7446 58.7249 35.0933 59.3737L33.6958 60.7612C33.0383 61.4075 31.9745 61.4037 31.3258 60.7487L29.8757 59.2875C29.1135 59.7026 28.3021 60.0205 27.4607 60.2337L27.4494 62.335C27.4457 63.2538 26.6907 64.005 25.7682 64L23.8006 63.9925C22.8819 63.99 22.1306 63.2313 22.1356 62.3113L22.1431 60.1912C21.3112 59.9651 20.5102 59.6376 19.7581 59.2162L18.2693 60.6925C17.6193 61.3412 16.5542 61.3375 15.9055 60.6825L14.5192 59.2825C13.8704 58.6312 13.8742 57.5674 14.5267 56.9187L15.9367 55.5249C15.4648 54.7512 15.095 53.9197 14.8367 53.0511L12.9429 53.0423C12.0216 53.0386 11.2704 52.2798 11.2754 51.361L11.2854 49.3935C11.2904 48.471 12.0441 47.7197 12.9629 47.7247L14.6792 47.7322C14.8964 46.7801 15.2483 45.8637 15.7242 45.0109L14.5854 43.8634C13.9367 43.2121 13.9417 42.1434 14.5942 41.4946L15.9917 40.1121C16.648 39.4633 17.7105 39.4671 18.3593 40.1208L19.3968 41.1683C20.2656 40.6296 21.2206 40.2221 22.2293 39.9558L22.2368 38.532C22.2406 37.6133 22.9981 36.8645 23.9169 36.8683L25.8857 36.877C26.8057 36.8795 27.5557 37.637 27.552 38.557L27.547 39.9583C28.5645 40.2246 29.5232 40.6458 30.3958 41.1871L31.417 40.1746C32.0683 39.5308 33.1321 39.5346 33.7808 40.1871L35.1659 41.5846C35.8146 42.2371 35.8109 43.3059 35.1596 43.9521L34.0558 45.0422C34.5308 45.9009 34.8871 46.836 35.1034 47.8222L36.7421 47.8297C37.6646 47.8347 38.4159 48.5872 38.4109 49.5085ZM18.198 10.849C22.1306 10.9715 25.2207 14.2591 25.0957 18.1979C24.9757 22.1305 21.6856 25.2205 17.7493 25.1005C13.8167 24.9755 10.7254 21.6855 10.8491 17.7491C10.9716 13.8166 14.2592 10.724 18.198 10.849ZM30.2333 50.4598C30.2208 53.4336 27.7945 55.8399 24.8206 55.8224C21.8406 55.8099 19.438 53.3886 19.453 50.4135C19.4643 47.4335 21.8918 45.0334 24.8657 45.0459C27.8445 45.0572 30.247 47.481 30.2333 50.4598ZM44.336 28.5581C46.7386 28.1143 49.0424 29.6994 49.4874 32.1019C49.9336 34.502 48.3436 36.8083 45.9436 37.257C43.541 37.6995 41.236 36.1132 40.7922 33.712C40.3497 31.3094 41.936 29.0006 44.336 28.5581ZM17.2343 0.00129134L19.8368 0.085043C21.0506 0.123794 22.0168 1.14881 21.9768 2.36634L21.9031 4.77388C23.0731 5.16639 24.1731 5.7089 25.1794 6.38017L27.0282 4.64513C27.9157 3.81137 29.3232 3.85512 30.1545 4.74263L31.9383 6.64017C32.7746 7.52644 32.7271 8.93772 31.8408 9.77023L29.857 11.6328C30.3708 12.6453 30.7683 13.7291 31.0233 14.8641L33.7996 14.9516C35.0183 14.9891 35.9809 16.0154 35.9459 17.2341L35.8621 19.8367C35.8234 21.0505 34.7983 22.0167 33.5796 21.9767L30.7745 21.8917C30.4458 22.9942 29.982 24.0393 29.4045 25.0068L31.302 27.0281C32.1345 27.9156 32.092 29.3231 31.2045 30.1544L29.307 31.9382C28.4195 32.7707 27.0094 32.7269 26.1757 31.8407L24.3844 29.9319C23.3556 30.5206 22.2456 30.9844 21.0743 31.2944L20.9956 33.7995C20.9568 35.0182 19.9318 35.9807 18.713 35.9457L16.1142 35.862C14.8955 35.8232 13.9304 34.7982 13.9679 33.5794L14.0404 31.3169C12.7892 30.9926 11.5895 30.4944 10.4766 29.8369L8.91784 31.3019C8.03407 32.1344 6.62404 32.0919 5.79028 31.2044L4.00899 29.3069C3.17648 28.4193 3.21898 27.0131 4.10649 26.1756L5.52777 24.8405C4.84073 23.6608 4.33506 22.3844 4.02774 21.0542L2.14521 20.9955C0.928932 20.9567 -0.0335873 19.9317 0.00141341 18.7129L0.085165 16.1091C0.123916 14.8953 1.14894 13.9303 2.36646 13.9678L4.22025 14.0278C4.609 12.689 5.19526 11.4353 5.94403 10.3002L4.64525 8.91772C3.81149 8.03395 3.85524 6.62392 4.74276 5.79015L6.64029 4.00887C7.52656 3.17635 8.93409 3.21885 9.77035 4.10637L11.1716 5.5989C12.3267 5.00264 13.5729 4.56513 14.8842 4.31388L14.9517 2.14508C14.9892 0.928809 16.0155 -0.0337093 17.2343 0.00129134ZM42.3185 22.1105L43.911 21.8167C44.6535 21.6792 45.3711 22.1742 45.5086 22.9167L45.7798 24.3893C46.5411 24.4718 47.2798 24.6555 47.9799 24.928L48.8699 23.6305C49.2986 23.0105 50.1549 22.853 50.7787 23.2805L52.1112 24.1955C52.7312 24.6243 52.8887 25.4805 52.4649 26.1043L51.5062 27.4956C51.9537 28.0418 52.3362 28.6469 52.6374 29.2981L54.3337 28.9844C55.0762 28.8469 55.7963 29.3456 55.9338 30.0881L56.2288 31.6744C56.365 32.4169 55.8713 33.1357 55.1287 33.2732L53.415 33.5919C53.3626 34.2965 53.2215 34.9916 52.995 35.6607L54.4137 36.6358C55.0337 37.0645 55.195 37.9245 54.7662 38.5445L53.8512 39.8771C53.4237 40.4971 52.5624 40.6571 51.9424 40.2308L50.6024 39.3096C50.0574 39.8021 49.4436 40.2246 48.7761 40.5721L49.0599 42.0996C49.1961 42.8421 48.7011 43.5659 47.9599 43.7009L46.3686 43.9959C45.6311 44.1334 44.9073 43.6384 44.7698 42.8921L44.516 41.5134C43.7152 41.4826 42.9228 41.3386 42.1622 41.0858L41.4097 42.1771C40.9835 42.8021 40.1247 42.9584 39.4997 42.5321L38.1684 41.6171C37.5471 41.1871 37.3859 40.3321 37.8147 39.7071L38.5009 38.7108C37.9293 38.0855 37.4541 37.3786 37.0909 36.6133L35.9459 36.8245C35.2034 36.962 34.4833 36.467 34.3458 35.7245L34.0508 34.1382C33.9146 33.3957 34.4083 32.6732 35.1509 32.5357L36.2821 32.3269C36.3409 31.4669 36.5334 30.6306 36.8359 29.8444L35.8659 29.1769C35.2446 28.7494 35.0846 27.8881 35.5134 27.2681L36.4284 25.938C36.8559 25.3118 37.7172 25.1555 38.3372 25.583L39.3847 26.3018C40.0059 25.7905 40.7047 25.358 41.4635 25.033L41.2185 23.713C41.081 22.9667 41.576 22.2492 42.3185 22.1105Z" fill="#D5FE6B"/>
</svg>
