<svg width="56" height="48" viewBox="0 0 56 48" fill="none" xmlns="http://www.w3.org/2000/svg">
<path fill-rule="evenodd" clip-rule="evenodd" d="M8.73915 29.2237V47.1797C8.73679 47.3973 8.649 47.6053 8.4947 47.7587C8.3404 47.9122 8.13197 47.9988 7.91437 48H0.824789C0.60682 48 0.397712 47.9137 0.243163 47.76C0.0886138 47.6063 0.00119109 47.3977 0 47.1797L0 29.2237H8.73915ZM0 23.36L18.7448 6.95887C22.8958 11.0152 26.9206 15.9414 31.0265 19.9977L46.0034 4.95775L41.1808 0.126197L55.3825 0V14.3234L50.7538 9.69465C47.4321 13.0614 39.5763 20.4755 36.2547 23.8017C32.0496 28.0023 30.0439 28.0789 25.8434 23.8783L18.7448 15.982L10.4248 23.36H0ZM51.547 17.4377V47.1842C51.5447 47.4011 51.4575 47.6083 51.3042 47.7617C51.1509 47.915 50.9436 48.0022 50.7268 48.0045H43.6327C43.4159 48.001 43.2091 47.9127 43.0566 47.7585C42.9041 47.6043 42.8181 47.3966 42.8169 47.1797V25.8208C44.169 24.5093 45.7465 22.9859 47.3555 21.4355L50.7132 18.2039C50.9806 17.934 51.2619 17.6783 51.5561 17.4377H51.547ZM37.2777 30.8011V47.1797C37.2754 47.3973 37.1876 47.6053 37.0333 47.7587C36.879 47.9122 36.6706 47.9988 36.453 48H29.3634C29.1458 47.9988 28.9373 47.9122 28.783 47.7587C28.6287 47.6053 28.541 47.3973 28.5386 47.1797V32.5499C29.3837 32.7549 30.2517 32.8504 31.1211 32.8338C33.3329 32.8017 35.4816 32.0922 37.2777 30.8011ZM23.0084 29.449V47.1572C23.0061 47.3748 22.9183 47.5827 22.764 47.7362C22.6097 47.8896 22.4013 47.9763 22.1837 47.9775H15.0896C14.8724 47.9763 14.6644 47.8895 14.5109 47.7359C14.3573 47.5823 14.2705 47.3744 14.2693 47.1572V27.9437C14.4135 27.8355 14.5532 27.7228 14.6885 27.6056L18.231 24.4507L21.0885 27.6056L21.3093 27.8355C21.8862 28.4154 22.4526 28.9442 23.0084 29.422V29.449Z" fill="#D5FE6B"/>
</svg>
