<svg width="65" height="64" viewBox="0 0 65 64" fill="none" xmlns="http://www.w3.org/2000/svg">
<path d="M15.4128 10.3896H48.9644C50.2343 10.3896 51.3886 10.9101 52.2235 11.745L52.2939 11.823C53.0898 12.6528 53.5815 13.7782 53.5815 15.0054V48.9945C53.5815 50.2569 53.0596 51.4099 52.2235 52.2473L52.2185 52.2524C51.3811 53.0885 50.2281 53.6103 48.9644 53.6103H15.4128C14.1492 53.6103 12.9949 53.0898 12.1575 52.2536C11.3176 51.4175 10.7958 50.2632 10.7958 48.9945V15.0054C10.7958 13.7354 11.315 12.5799 12.1512 11.745L12.2279 11.6746C13.0578 10.88 14.1818 10.3896 15.4128 10.3896ZM21.0031 31.5096C21.9876 31.5096 22.8841 31.9107 23.5341 32.5595L23.5392 32.5645C24.1892 33.2171 24.5891 34.1123 24.5891 35.0956C24.5891 36.0839 24.188 36.9816 23.5392 37.6304L23.4713 37.6933C23.1167 38.029 22.6942 38.2943 22.2277 38.4641V43.7362H34.5084C35.1145 43.7362 35.6061 44.2266 35.6061 44.8326V51.1786H48.9644C49.5617 51.1786 50.1086 50.9321 50.5059 50.5361C50.9033 50.1375 51.1497 49.5905 51.1497 48.9945V15.0054C51.1497 14.432 50.9234 13.9052 50.5562 13.5129L50.5047 13.4638C50.1086 13.0678 49.5629 12.8213 48.9644 12.8213H45.8486V30.2648C45.8486 30.8708 45.3583 31.3625 44.751 31.3625H39.9428C39.7705 31.9396 39.4549 32.4589 39.0387 32.8751C38.3925 33.5264 37.4947 33.9288 36.5051 33.9288C35.5219 33.9288 34.6254 33.5264 33.9753 32.8776L33.9703 32.8738C33.3202 32.2212 32.9204 31.326 32.9204 30.3427C32.9204 29.3532 33.3215 28.4554 33.9703 27.8066C34.6191 27.1591 35.5169 26.7567 36.5051 26.7567C37.4947 26.7567 38.3925 27.1591 39.0413 27.8079L39.1029 27.8758C39.4512 28.2429 39.724 28.6818 39.8925 29.1671H43.6545V12.8213H15.4128C14.8369 12.8213 14.3101 13.0464 13.9178 13.4123L13.87 13.4638C13.4739 13.8599 13.2275 14.4069 13.2275 15.0054V19.415H32.2666V18.6291C32.2666 18.1915 32.4451 17.7942 32.7318 17.5075C33.0185 17.2209 33.4171 17.0423 33.8534 17.0423H37.589C38.0266 17.0423 38.4239 17.2209 38.7106 17.5075C38.996 17.7942 39.1758 18.1915 39.1758 18.6291V22.3949C39.1758 22.8312 38.996 23.2298 38.7106 23.5152C38.4239 23.8019 38.0266 23.9805 37.589 23.9805H33.8534C33.4171 23.9805 33.0185 23.8019 32.7318 23.5152C32.4451 23.2298 32.2666 22.8312 32.2666 22.3949V21.6091H13.2275V26.3745H28.4869C29.093 26.3745 29.5846 26.8661 29.5846 27.4722V38.2604H39.3003V37.1753C39.3003 36.7214 39.4864 36.3077 39.7831 36.011C40.0811 35.713 40.4948 35.5269 40.9487 35.5269H45.0955C45.5506 35.5269 45.9631 35.713 46.2611 36.011C46.5578 36.3077 46.7439 36.7214 46.7439 37.1753V41.3548C46.7439 41.8099 46.5578 42.2223 46.2611 42.5203C45.9631 42.8183 45.5506 43.0044 45.0955 43.0044H40.9487C40.4948 43.0044 40.0811 42.8183 39.7831 42.5203C39.4864 42.2223 39.3003 41.8099 39.3003 41.3548V40.4557H28.4869C27.8809 40.4557 27.3892 39.9641 27.3892 39.3581V28.5686H13.2275V48.9945C13.2275 49.5918 13.4752 50.1387 13.8713 50.5348C14.2673 50.9321 14.8143 51.1786 15.4128 51.1786H33.4108V45.9303H21.1313C20.5253 45.9303 20.0336 45.4387 20.0336 44.8326V38.5483C19.4339 38.3798 18.897 38.0592 18.4682 37.6304C17.8194 36.9816 17.4183 36.0839 17.4183 35.0956C17.4183 34.1098 17.8207 33.2121 18.4707 32.562C19.117 31.9107 20.0135 31.5096 21.0031 31.5096ZM22.0982 33.9954C21.8216 33.7188 21.4343 33.5465 21.0031 33.5465C20.5756 33.5465 20.1883 33.72 19.9079 34.0004C19.6262 34.277 19.4552 34.6643 19.4552 35.0956C19.4552 35.5231 19.6288 35.9104 19.9079 36.1908C20.1883 36.4699 20.5756 36.6434 21.0031 36.6434C21.413 36.6434 21.7826 36.4888 22.0567 36.2348L22.0982 36.1908C22.3786 35.9104 22.5521 35.5231 22.5521 35.0956C22.5521 34.6643 22.3799 34.277 22.1033 34.0004L22.0982 33.9954ZM44.707 37.5638H41.3372V40.9662H44.707V37.5638ZM37.6003 29.2476C37.3212 28.9684 36.9339 28.7949 36.5051 28.7949C36.0776 28.7949 35.6904 28.9672 35.4112 29.2476C35.1308 29.5267 34.9573 29.9152 34.9573 30.3427C34.9573 30.7728 35.1296 31.16 35.4062 31.4379L35.4112 31.4417C35.6879 31.7196 36.0751 31.8906 36.5051 31.8906C36.9339 31.8906 37.3212 31.717 37.6003 31.4379C37.843 31.199 38.0039 30.8796 38.0442 30.5213C38.0253 30.4383 38.014 30.3528 38.014 30.2648C38.014 30.1994 38.0203 30.1353 38.0316 30.0724C37.9788 29.7719 37.8417 29.5016 37.6456 29.2903L37.6003 29.2476ZM37.1376 19.0792H34.3035V21.9435H37.1376V19.0792ZM0 43.3012V47.1387C0 47.5335 0.323143 47.8566 0.717957 47.8566H6.35599C6.75081 47.8566 7.07395 47.5335 7.07395 47.1387V43.3012C7.07395 42.9064 6.75081 42.5832 6.35599 42.5832H0.717957C0.323143 42.5832 0 42.9064 0 43.3012H0ZM0 34.4883V38.3258C0 38.7206 0.323143 39.0437 0.717957 39.0437H6.35599C6.75081 39.0437 7.07395 38.7206 7.07395 38.3258V34.4883C7.07395 34.0935 6.75081 33.7703 6.35599 33.7703H0.717957C0.323143 33.7703 0 34.0935 0 34.4883H0ZM0 25.6754V29.5129C0 29.9077 0.323143 30.2308 0.717957 30.2308H6.35599C6.75081 30.2308 7.07395 29.9077 7.07395 29.5129V25.6754C7.07395 25.2806 6.75081 24.9574 6.35599 24.9574H0.717957C0.323143 24.9574 0 25.2806 0 25.6754H0ZM0 16.8625V20.7C0 21.0948 0.323143 21.4179 0.717957 21.4179H6.35599C6.75081 21.4179 7.07395 21.0948 7.07395 20.7V16.8625C7.07395 16.4677 6.75081 16.1446 6.35599 16.1446H0.717957C0.323143 16.1446 0 16.4677 0 16.8625H0ZM64.3772 43.3012V47.1387C64.3772 47.5335 64.0541 47.8566 63.6593 47.8566H58.02C57.6264 47.8566 57.3033 47.5335 57.3033 47.1387V43.3012C57.3033 42.9064 57.6264 42.5832 58.02 42.5832H63.6593C64.0541 42.5832 64.3772 42.9064 64.3772 43.3012ZM64.3772 34.4883V38.3258C64.3772 38.7206 64.0541 39.0437 63.6593 39.0437H58.02C57.6264 39.0437 57.3033 38.7206 57.3033 38.3258V34.4883C57.3033 34.0935 57.6264 33.7703 58.02 33.7703H63.6593C64.0541 33.7703 64.3772 34.0935 64.3772 34.4883ZM64.3772 25.6754V29.5129C64.3772 29.9077 64.0541 30.2308 63.6593 30.2308H58.02C57.6264 30.2308 57.3033 29.9077 57.3033 29.5129V25.6754C57.3033 25.2806 57.6264 24.9574 58.02 24.9574H63.6593C64.0541 24.9574 64.3772 25.2806 64.3772 25.6754ZM64.3772 16.8625V20.7C64.3772 21.0948 64.0541 21.4179 63.6593 21.4179H58.02C57.6264 21.4179 57.3033 21.0948 57.3033 20.7V16.8625C57.3033 16.4677 57.6264 16.1446 58.02 16.1446H63.6593C64.0541 16.1446 64.3772 16.4677 64.3772 16.8625ZM43.4886 63.9899H47.3261C47.7209 63.9899 48.044 63.6668 48.044 63.2719V57.6339C48.044 57.2391 47.7209 56.9159 47.3261 56.9159H43.4886C43.0938 56.9159 42.7706 57.2391 42.7706 57.6339V63.2719C42.7706 63.6668 43.0938 63.9899 43.4886 63.9899ZM34.6769 63.9899H38.5144C38.9092 63.9899 39.2311 63.6668 39.2311 63.2719V57.6339C39.2311 57.2391 38.9092 56.9159 38.5144 56.9159H34.6769C34.2821 56.9159 33.959 57.2391 33.959 57.6339V63.2719C33.959 63.6668 34.2821 63.9899 34.6769 63.9899ZM25.864 63.9899H29.7015C30.0951 63.9899 30.4182 63.6668 30.4182 63.2719V57.6339C30.4182 57.2391 30.0951 56.9159 29.7015 56.9159H25.864C25.4692 56.9159 25.1461 57.2391 25.1461 57.6339V63.2719C25.1461 63.6668 25.4692 63.9899 25.864 63.9899ZM17.0512 63.9899H20.8886C21.2835 63.9899 21.6053 63.6668 21.6053 63.2719V57.6339C21.6053 57.2391 21.2835 56.9159 20.8886 56.9159H17.0512C16.6563 56.9159 16.3332 57.2391 16.3332 57.6339V63.2719C16.3332 63.6668 16.6563 63.9899 17.0512 63.9899ZM43.4886 0.0100098H47.3261C47.7209 0.0100098 48.044 0.333153 48.044 0.727967V6.36726C48.044 6.76082 47.7209 7.08396 47.3261 7.08396H43.4886C43.0938 7.08396 42.7706 6.76082 42.7706 6.36726V0.727967C42.7706 0.333153 43.0938 0.0100098 43.4886 0.0100098V0.0100098ZM34.6769 0.0100098H38.5144C38.9092 0.0100098 39.2311 0.333153 39.2311 0.727967V6.36726C39.2311 6.76082 38.9092 7.08396 38.5144 7.08396H34.6769C34.2821 7.08396 33.959 6.76082 33.959 6.36726V0.727967C33.959 0.333153 34.2821 0.0100098 34.6769 0.0100098V0.0100098ZM25.864 0.0100098H29.7015C30.0951 0.0100098 30.4182 0.333153 30.4182 0.727967V6.36726C30.4182 6.76082 30.0951 7.08396 29.7015 7.08396H25.864C25.4692 7.08396 25.1461 6.76082 25.1461 6.36726V0.727967C25.1461 0.333153 25.4692 0.0100098 25.864 0.0100098V0.0100098ZM17.0512 0.0100098H20.8886C21.2835 0.0100098 21.6053 0.333153 21.6053 0.727967V6.36726C21.6053 6.76082 21.2835 7.08396 20.8886 7.08396H17.0512C16.6563 7.08396 16.3332 6.76082 16.3332 6.36726V0.727967C16.3332 0.333153 16.6563 0.0100098 17.0512 0.0100098V0.0100098Z" fill="#D5FE6B"/>
</svg>
