<svg width="64" height="64" viewBox="0 0 64 64" fill="none" xmlns="http://www.w3.org/2000/svg">
<path fill-rule="evenodd" clip-rule="evenodd" d="M42.045 4.98331L27.6117 13.6072L44.5468 15.9089L58.4721 7.22247L42.045 4.98331ZM45.3874 30.5736C54.618 30.5736 62.0998 38.0566 62.0998 47.2872C62.0998 56.5166 54.618 63.9996 45.3874 63.9996C36.1568 63.9996 28.675 56.5166 28.675 47.2872C28.675 38.0566 36.1568 30.5736 45.3874 30.5736ZM41.0842 44.9292L43.5748 47.2634L49.2953 41.4516C49.8533 40.885 50.206 40.4284 50.8953 41.1376L53.1319 43.4306C53.8675 44.1574 53.83 44.584 53.1369 45.2594L44.852 53.3917C43.3935 54.8253 43.6461 54.9116 42.165 53.443L37.3177 48.6244C37.0087 48.2892 37.0437 47.9527 37.3815 47.6162L39.9772 44.9242C40.3712 44.5114 40.6827 44.5464 41.0842 44.9292ZM25.6228 15.7776L25.6115 33.5045L19.1755 29.1212L12.7382 32.7577L13.5013 14.1301L2.42555 12.6252V51.7768L24.8109 54.6714C25.1262 55.5583 25.4952 56.4202 25.918 57.2509L1.16336 54.0497C0.516634 54.0235 0 53.4893 0 52.8376V11.2404C0.0337751 10.7338 0.236425 10.3786 0.715531 10.1384L22.8269 0.105935C23.0246 0.0158685 23.2673 -0.0204084 23.4837 0.00961388L62.0348 5.26852C62.6715 5.34232 63.1081 5.86521 63.1081 6.51819V6.5207L63.1719 35.1382C62.4564 34.0799 61.2242 32.6001 60.6788 31.6644V8.70107L46.1918 18.0743V25.5561C45.3831 25.5262 44.5733 25.5412 43.7662 25.6011V18.2431L25.6228 15.7776ZM15.4252 11.9522L29.4569 3.26578L23.5049 2.45393L5.53411 10.6075L15.4252 11.9522Z" fill="#D5FE6B"/>
</svg>
