<svg width="56" height="64" viewBox="0 0 56 64" fill="none" xmlns="http://www.w3.org/2000/svg">
<path fill-rule="evenodd" clip-rule="evenodd" d="M29.3542 1.27047C33.1529 3.76186 37.2491 5.76708 41.5469 7.23922C44.7358 8.34844 48.1156 8.80368 51.4844 8.57776L54.9792 8.26005L55.151 11.7705C55.7917 24.6819 53.7083 35.9007 49.3385 44.7496C44.7917 53.958 37.8021 60.609 28.8281 63.984H26.4948C17.724 60.7809 10.7865 54.3121 6.18229 44.9892C1.88541 36.2392 -0.317712 24.9371 0.0364543 11.458L0.130204 7.99443L3.57291 8.17151C7.32063 8.41467 11.0826 8.02914 14.7031 7.03088C18.6222 5.88611 22.2818 3.99172 25.4792 1.45276L27.349 -0.000366211L29.3542 1.27047ZM27.5677 10.0517C34.6146 14.5205 40.9792 16.635 46.4427 16.1455C47.3958 35.4163 40.2708 50.1455 27.6406 54.9007C15.4375 50.4476 8.22395 36.2288 8.76041 15.8382C15.1719 16.1767 21.4687 14.7965 27.5677 10.0517ZM23.7031 32.0882C24.1893 32.503 24.6486 32.9483 25.0781 33.4215C26.3765 31.3281 27.8156 29.3252 29.3854 27.4267C33.6771 22.2444 32.3958 22.583 38.349 22.583L37.5 23.4996C35.2649 26.0067 33.2111 28.6697 31.3542 31.4684C29.2897 34.4537 27.4179 37.5676 25.75 40.7913L25.2292 41.7861L24.7552 40.7757C23.9134 38.9382 22.848 37.2116 21.5833 35.635C20.4423 34.1934 19.0799 32.9417 17.5469 31.9267C18.3229 29.3798 22.0208 30.6871 23.6771 32.0882H23.7031ZM27.5469 4.11943C36.599 9.84859 44.7708 12.5673 51.7917 11.9319C53.0156 36.7184 43.8594 54.7288 27.6406 60.8382C11.9792 55.1142 2.71354 37.734 3.40104 11.5517C11.6354 11.9788 19.7187 10.2028 27.5469 4.11943Z" fill="#D5FE6B"/>
</svg>
