<svg width="796" height="1002" viewBox="0 0 796 1002" fill="none" xmlns="http://www.w3.org/2000/svg">
<path opacity="0.4" d="M177.616 469.699C534.03 212.983 19.64 -73.1964 344.259 -80.4615C668.878 -87.7267 1129.05 268.254 979.758 700.585" stroke="#3900AE" stroke-width="2" stroke-miterlimit="10" stroke-linecap="round"/>
<path opacity="0.1" d="M1041.11 468.962C991.998 549.957 989.845 494.764 931.995 566.272C874.553 803.149 1070.23 747.944 873.775 783.206C609.679 830.61 0.517841 620.6 299.048 111.396" stroke="#85BA02" stroke-width="2" stroke-miterlimit="10" stroke-linecap="round"/>
<path d="M754.418 -36.6243C701.434 -68.6489 637.897 -78.3138 577.787 -63.4928C517.676 -48.6718 465.915 -10.5789 433.89 42.4058C401.866 95.3904 392.201 158.927 407.022 219.037C421.843 279.148 459.936 330.909 512.92 362.934L754.418 -36.6243Z" fill="url(#paint0_linear_369_13)"/>
<path d="M512.92 362.934C565.905 394.958 629.441 404.623 689.552 389.802C749.663 374.981 801.424 336.889 833.449 283.904C865.473 230.919 875.138 167.383 860.317 107.272C845.496 47.1615 807.403 -4.59962 754.418 -36.6242L512.92 362.934Z" fill="url(#paint1_linear_369_13)"/>
<path d="M778.31 260.129C730.641 231.317 673.479 222.622 619.399 235.956C565.32 249.29 518.752 283.561 489.94 331.23C461.128 378.899 452.433 436.061 465.767 490.141C479.101 544.221 513.372 590.789 561.041 619.6L778.31 260.129Z" fill="url(#paint2_linear_369_13)"/>
<path d="M561.041 619.6C608.71 648.412 665.872 657.107 719.952 643.773C774.032 630.439 820.6 596.168 849.412 548.499C878.223 500.83 886.919 443.668 873.585 389.588C860.251 335.508 825.979 288.94 778.311 260.128L561.041 619.6Z" fill="url(#paint3_linear_369_13)"/>
<path d="M486.294 406.985C449.87 384.97 406.193 378.326 364.871 388.515C323.548 398.703 287.966 424.89 265.951 461.313C243.936 497.737 237.292 541.414 247.481 582.736C257.669 624.059 283.856 659.641 320.279 681.656L486.294 406.985Z" fill="url(#paint4_linear_369_13)"/>
<path d="M320.279 681.656C356.703 703.671 400.38 710.315 441.702 700.126C483.025 689.938 518.607 663.751 540.622 627.328C562.637 590.904 569.281 547.227 559.092 505.904C548.904 464.582 522.718 429 486.294 406.985L320.279 681.656Z" fill="url(#paint5_linear_369_13)"/>
<defs>
<linearGradient id="paint0_linear_369_13" x1="656.308" y1="53.3234" x2="476.676" y2="359.04" gradientUnits="userSpaceOnUse">
<stop stop-color="#110F17"/>
<stop offset="1" stop-color="#21F0AD"/>
</linearGradient>
<linearGradient id="paint1_linear_369_13" x1="611.031" y1="272.986" x2="790.663" y2="-32.7301" gradientUnits="userSpaceOnUse">
<stop stop-color="#110F17"/>
<stop offset="1" stop-color="#21F0AD"/>
</linearGradient>
<linearGradient id="paint2_linear_369_13" x1="760.001" y1="257" x2="528.433" y2="616.097" gradientUnits="userSpaceOnUse">
<stop offset="0.0667995" stop-color="#6A6A6A"/>
<stop offset="0.229387" stop-color="#9B999F"/>
<stop offset="0.276775" stop-color="#CECECE"/>
<stop offset="0.324605" stop-color="#A2A1A4"/>
<stop offset="0.585847"/>
</linearGradient>
<linearGradient id="paint3_linear_369_13" x1="649.308" y1="538.677" x2="810.919" y2="263.632" gradientUnits="userSpaceOnUse">
<stop stop-color="#101010"/>
<stop offset="1" stop-color="#3900AE"/>
</linearGradient>
<linearGradient id="paint4_linear_369_13" x1="418.849" y1="468.819" x2="295.363" y2="678.979" gradientUnits="userSpaceOnUse">
<stop stop-color="#0F140F"/>
<stop offset="1" stop-color="#D0FE6D"/>
</linearGradient>
<linearGradient id="paint5_linear_369_13" x1="387.724" y1="619.822" x2="511.21" y2="409.662" gradientUnits="userSpaceOnUse">
<stop stop-color="#0F140F"/>
<stop offset="1" stop-color="#D0FE6D"/>
</linearGradient>
</defs>
</svg>
