<svg width="72" height="30" viewBox="0 0 72 30" fill="none" xmlns="http://www.w3.org/2000/svg">
<path d="M0 13.7228C0 12.0792 0.33759 10.604 1.01277 9.29703C1.68795 7.9901 2.5915 6.9703 3.72342 6.23762C4.8752 5.48515 6.10641 5.10891 7.41705 5.10891C8.31067 5.10891 9.09507 5.23762 9.77025 5.49505C10.4454 5.73267 11.0511 6.13861 11.5873 6.71287V5.22772H18.1703V30H11.5873V20.1386C10.9915 20.8317 10.3561 21.3465 9.68089 21.6832C9.02557 22 8.27096 22.1584 7.41705 22.1584C6.08655 22.1584 4.85534 21.802 3.72342 21.0891C2.5915 20.3762 1.68795 19.3861 1.01277 18.1188C0.33759 16.8317 0 15.3663 0 13.7228ZM11.5873 13.604C11.5873 12.6337 11.3291 11.9307 10.8128 11.4951C10.3164 11.0396 9.76032 10.8119 9.14472 10.8119C8.54897 10.8119 7.99294 11.0594 7.47663 11.5545C6.96031 12.0297 6.70216 12.7525 6.70216 13.7228C6.70216 14.6733 6.95038 15.3663 7.44684 15.802C7.96315 16.2178 8.52911 16.4257 9.14472 16.4257C9.76032 16.4257 10.3164 16.198 10.8128 15.7426C11.3291 15.2871 11.5873 14.5743 11.5873 13.604Z" fill="url(#paint0_linear_889_2)"/>
<path d="M27.7525 7.51485C28.1695 6.74257 28.7653 6.13861 29.5398 5.70297C30.3341 5.24752 31.2773 5.0198 32.3695 5.0198C33.6802 5.0198 34.8618 5.36634 35.9142 6.05941C36.9667 6.73267 37.7908 7.72277 38.3866 9.0297C39.0022 10.3168 39.31 11.8416 39.31 13.604C39.31 15.3663 39.0022 16.901 38.3866 18.2079C37.7908 19.4951 36.9667 20.4851 35.9142 21.1782C34.8618 21.8515 33.6802 22.1881 32.3695 22.1881C31.2773 22.1881 30.3341 21.9703 29.5398 21.5347C28.7653 21.0792 28.1695 20.4653 27.7525 19.6931V21.9802H21.1397V0H27.7525V7.51485ZM32.6078 13.604C32.6078 12.7129 32.3795 12.0198 31.9227 11.5248C31.466 11.0297 30.8802 10.7822 30.1653 10.7822C29.4504 10.7822 28.8646 11.0297 28.4078 11.5248C27.9511 12.0198 27.7227 12.7129 27.7227 13.604C27.7227 14.4951 27.9511 15.1881 28.4078 15.6832C28.8646 16.1782 29.4504 16.4257 30.1653 16.4257C30.8802 16.4257 31.466 16.1782 31.9227 15.6832C32.3795 15.1881 32.6078 14.4951 32.6078 13.604Z" fill="url(#paint1_linear_889_2)"/>
<path d="M60.3604 5.22772L49.6071 30H42.3688L46.5986 21.1485L39.5986 5.22772H46.956L50.1135 13.7228L53.0625 5.22772H60.3604Z" fill="url(#paint2_linear_889_2)"/>
<path d="M72 16.3663V21.9802H69.4979C64.8907 21.9802 62.5872 19.6931 62.5872 15.1188V10.7228H60.5021V5.22772H62.5872V1.18812H69.2V5.22772H71.9404V10.7228H69.2V15.2376C69.2 15.6337 69.2893 15.9208 69.4681 16.099C69.6667 16.2772 69.9844 16.3663 70.4213 16.3663H72Z" fill="url(#paint3_linear_889_2)"/>
<path d="M6.51598 13.6139C6.51598 11.9051 7.90518 10.5198 9.61883 10.5198H71.9861V16.7079H9.61884C7.90518 16.7079 6.51598 15.3227 6.51598 13.6139Z" fill="#121212"/>
<defs>
<linearGradient id="paint0_linear_889_2" x1="7.78383e-08" y1="14.9701" x2="72.0804" y2="14.9701" gradientUnits="userSpaceOnUse">
<stop stop-color="#E0FF66"/>
<stop offset="1" stop-color="#07EDB6"/>
</linearGradient>
<linearGradient id="paint1_linear_889_2" x1="7.78383e-08" y1="14.9701" x2="72.0804" y2="14.9701" gradientUnits="userSpaceOnUse">
<stop stop-color="#E0FF66"/>
<stop offset="1" stop-color="#07EDB6"/>
</linearGradient>
<linearGradient id="paint2_linear_889_2" x1="7.78383e-08" y1="14.9701" x2="72.0804" y2="14.9701" gradientUnits="userSpaceOnUse">
<stop stop-color="#E0FF66"/>
<stop offset="1" stop-color="#07EDB6"/>
</linearGradient>
<linearGradient id="paint3_linear_889_2" x1="7.78383e-08" y1="14.9701" x2="72.0804" y2="14.9701" gradientUnits="userSpaceOnUse">
<stop stop-color="#E0FF66"/>
<stop offset="1" stop-color="#07EDB6"/>
</linearGradient>
</defs>
</svg>
