<svg width="11" height="10" viewBox="0 0 11 10" fill="none" xmlns="http://www.w3.org/2000/svg">
<path d="M5.50535 6.645C5.48385 6.66876 5.46381 6.69381 5.44535 6.72C5.42643 6.74787 5.4113 6.77814 5.40035 6.81C5.38594 6.83834 5.37583 6.86868 5.37035 6.9C5.3679 6.93329 5.3679 6.96671 5.37035 7C5.36866 7.06559 5.38236 7.13066 5.41035 7.19C5.43281 7.25205 5.46864 7.3084 5.5153 7.35506C5.56196 7.40172 5.61831 7.43754 5.68035 7.46C5.7402 7.48645 5.80492 7.50012 5.87035 7.50012C5.93579 7.50012 6.0005 7.48645 6.06035 7.46C6.1224 7.43754 6.17875 7.40172 6.22541 7.35506C6.27207 7.3084 6.3079 7.25205 6.33035 7.19C6.35256 7.1292 6.36275 7.06468 6.36035 7C6.36073 6.9342 6.34812 6.86897 6.32324 6.80805C6.29836 6.74713 6.26169 6.69172 6.21535 6.645C6.16887 6.59814 6.11357 6.56094 6.05264 6.53555C5.99171 6.51017 5.92636 6.4971 5.86035 6.4971C5.79435 6.4971 5.729 6.51017 5.66807 6.53555C5.60714 6.56094 5.55184 6.59814 5.50535 6.645ZM5.86035 0C4.87145 0 3.90475 0.293245 3.0825 0.842652C2.26026 1.39206 1.61939 2.17295 1.24096 3.08658C0.862518 4.00021 0.763501 5.00555 0.956427 5.97545C1.14935 6.94536 1.62556 7.83627 2.32482 8.53553C3.02408 9.2348 3.915 9.711 4.8849 9.90393C5.85481 10.0969 6.86014 9.99784 7.77377 9.6194C8.6874 9.24096 9.46829 8.6001 10.0177 7.77785C10.5671 6.95561 10.8604 5.98891 10.8604 5C10.8604 4.34339 10.731 3.69321 10.4798 3.08658C10.2285 2.47995 9.86018 1.92876 9.39589 1.46447C8.93159 1.00017 8.3804 0.631876 7.77377 0.380602C7.16714 0.129329 6.51696 0 5.86035 0V0ZM5.86035 9C5.06923 9 4.29587 8.7654 3.63807 8.32588C2.98028 7.88635 2.46759 7.26164 2.16484 6.53073C1.86209 5.79983 1.78287 4.99556 1.93721 4.21964C2.09155 3.44371 2.47252 2.73098 3.03193 2.17157C3.59134 1.61216 4.30407 1.2312 5.07999 1.07686C5.85592 0.922518 6.66018 1.00173 7.39109 1.30448C8.12199 1.60723 8.74671 2.11992 9.18623 2.77772C9.62576 3.43552 9.86035 4.20887 9.86035 5C9.86035 6.06087 9.43893 7.07828 8.68878 7.82843C7.93864 8.57857 6.92122 9 5.86035 9V9ZM5.86035 2.5C5.59689 2.49983 5.33802 2.56906 5.10981 2.70072C4.8816 2.83238 4.69209 3.02183 4.56035 3.25C4.52418 3.30691 4.49989 3.37055 4.48894 3.43709C4.478 3.50363 4.48062 3.5717 4.49667 3.63719C4.51271 3.70269 4.54184 3.76427 4.5823 3.81822C4.62275 3.87217 4.67371 3.91738 4.73209 3.95112C4.79047 3.98487 4.85508 4.00646 4.92202 4.01459C4.98896 4.02272 5.05686 4.01723 5.12162 3.99844C5.18639 3.97965 5.24668 3.94795 5.29888 3.90526C5.35107 3.86256 5.3941 3.80975 5.42535 3.75C5.46941 3.6737 5.53284 3.61039 5.60923 3.56649C5.68562 3.52259 5.77225 3.49965 5.86035 3.5C5.99296 3.5 6.12014 3.55268 6.21391 3.64645C6.30768 3.74021 6.36035 3.86739 6.36035 4C6.36035 4.13261 6.30768 4.25979 6.21391 4.35355C6.12014 4.44732 5.99296 4.5 5.86035 4.5C5.72775 4.5 5.60057 4.55268 5.5068 4.64645C5.41303 4.74021 5.36035 4.86739 5.36035 5V5.5C5.36035 5.63261 5.41303 5.75979 5.5068 5.85355C5.60057 5.94732 5.72775 6 5.86035 6C5.99296 6 6.12014 5.94732 6.21391 5.85355C6.30768 5.75979 6.36035 5.63261 6.36035 5.5V5.41C6.69104 5.29001 6.96903 5.05761 7.14574 4.75343C7.32245 4.44926 7.38662 4.09265 7.32705 3.74594C7.26748 3.39924 7.08795 3.08451 6.81985 2.85676C6.55175 2.62901 6.21212 2.50273 5.86035 2.5V2.5Z" fill="white"/>
</svg>
